# xmcd
#
# Track frame offsets:
#	183
#	16220
#	25785
#	44355
#	59798
#	78810
#	96508
#	106015
#	120935
#	134953
#	149083
#	165275
#	178558
#	198130
#
# Disc length: 2847 seconds
#
# Revision: 0
# Processed by: cddbd v1.4PL0 Copyright (c) Steve Scherf et al.
# Submitted via: OrangeCD 4.1
#
DISCID=b90b1d0e
DTITLE=The Amazing Stroopwafels - 14 Liedjes over Rijnmond
DYEAR=1900
DGENRE=
TTITLE0=Zwart Nazareth
TTITLE1=Statenvertaling uit Dordt
TTITLE2=Moorndenaar
TTITLE3=Rotterdam
TTITLE4=Superfosfaat
TTITLE5=De Haren Zeventig
TTITLE6=Capelle Schollevaar
TTITLE7=Wild Westland
TTITLE8=Erasmus
TTITLE9=Water
TTITLE10=Biesbosch
TTITLE11=De Graaf van Hellevoetsluis
TTITLE12=Vuilendam Vrij
TTITLE13=Oude Maasweg
EXTD=
EXTT0=
EXTT1=
EXTT2=
EXTT3=
EXTT4=
EXTT5=
EXTT6=
EXTT7=
EXTT8=
EXTT9=
EXTT10=
EXTT11=
EXTT12=
EXTT13=
PLAYORDER=
